<svg xmlns="http://www.w3.org/2000/svg" width="16" height="16" viewBox="0 0 16 16" fill="currentColor">
  <path d="M8 1a.5.5 0 0 1 .5.5v.518A4.974 4.974 0 0 1 13 7a4.978 4.978 0 0 1-1.363 3.422.5.5 0 0 1-.341.135H4.703a.5.5 0 0 1-.34-.135A4.978 4.978 0 0 1 3 7c0-2.379 1.664-4.365 3.9-4.858L7 2.018V1.5A.5.5 0 0 1 8 1zM4 7a4 4 0 0 0 8 0c0-1.84-1.249-3.384-2.941-3.838L9 3.132v1.382a.5.5 0 0 1-1 0V3.132C6.31 3.586 5.06 5.13 5.06 6.97 5.06 6.98 5.06 7 5.06 7H4zm2.835 5.414a.5.5 0 0 1 .658.252c.068.137.205.334.407.334.202 0 .34-.197.407-.334a.5.5 0 1 1 .91.41C8.933 13.675 8.5 14 8 14c-.5 0-.933-.325-1.217-.924a.5.5 0 0 1 .052-.662z"/>
</svg>